<?xml version="1.0" encoding="UTF-8"?>
<svg id="Layer_2" data-name="Layer 2" xmlns="http://www.w3.org/2000/svg" viewBox="0 0 272.51 154.7">
  <defs>
    <style>
      .cls-1 {
        font-family: JosefinSans-Light, 'Josefin Sans';
        font-weight: 300;
        letter-spacing: 0em;
      }

      .cls-2 {
        letter-spacing: -.01em;
      }

      .cls-2, .cls-3, .cls-4, .cls-5 {
        font-family: JosefinSans-SemiBoldItalic, 'Josefin Sans';
        font-style: italic;
        font-weight: 600;
      }

      .cls-3 {
        letter-spacing: -.05em;
      }

      .cls-6 {
        fill: #c34c4a;
      }

      .cls-6, .cls-7, .cls-8 {
        stroke-width: 0px;
      }

      .cls-7 {
        fill: #5bb44f;
      }

      .cls-8 {
        fill: #1d80b9;
      }

      .cls-4 {
        letter-spacing: -.01em;
      }

      .cls-5 {
        letter-spacing: -.07em;
      }

      .cls-9 {
        font-family: JosefinSans-Bold, 'Josefin Sans';
        font-weight: 700;
        letter-spacing: .01em;
      }

      .cls-10 {
        fill: #187fb9;
        font-size: 20.86px;
      }
    </style>
  </defs>
  <g id="Layer_3" data-name="Layer 3">
    <g>
      <g>
        <path class="cls-7" d="M56.8,98.71c0-6.02,0-12.04,0-18.06,0-1.03-.02-2.06.2-3.1.74-3.49,2.56-5.16,5.75-5.16,3.27,0,5.51,1.87,6.22,5.16.18.84-.13,2.22.51,2.42.9.28,1.35-1.05,1.97-1.68,4.76-4.79,10.5-6.46,17.13-5.72,7.7.85,12.33,5.49,14.08,11.69.72,2.56.82,5.22.83,7.86.04,8.41.03,16.81,0,25.22,0,1.82-.18,3.65-1.18,5.24-1.49,2.36-4.09,3.45-6.68,2.9-2.75-.59-4.73-2.69-5.15-5.55-.14-.97-.2-1.96-.21-2.94-.03-7.68-.04-15.36-.07-23.04-.01-2.29-.41-4.52-1.18-6.69-.72-2.04-2-3.43-4.1-4.08-6.73-2.09-13.54,2.36-14.46,9.38-.96,7.34-.35,14.71-.53,22.07-.03,1.3.01,2.6-.03,3.89-.14,4.26-2.69,7.04-6.46,7.07-3.73.03-6.47-2.75-6.6-6.95-.12-3.99-.03-7.99-.03-11.99,0-2.65,0-5.29,0-7.94h0Z"/>
        <path class="cls-7" d="M128.89,109.35c1.21-3.24,2.42-6.47,3.61-9.71,2.78-7.53,5.52-15.07,8.36-22.58,1.52-4.03,3.5-5.18,7.16-4.49,3.41.64,5.38,3.73,4.46,7.07-1.04,3.75-2.73,7.27-4.16,10.87-3.73,9.39-7.55,18.73-11.34,28.09-.41,1.01-.87,1.99-1.41,2.94-1.73,3.05-4.4,4.3-7.8,4-3.07-.27-5.1-2.07-6.36-4.79-2.84-6.11-5.17-12.43-7.73-18.65-2.74-6.66-5.39-13.35-8.03-20.05-.91-2.3-1.6-4.66.07-6.96,1.5-2.06,3.55-2.86,6.06-2.71,2.59.15,4.03,1.7,4.85,3.94,2.3,6.27,4.56,12.56,6.82,18.84,1.7,4.72,3.38,9.45,5.06,14.17.12,0,.25,0,.37.01Z"/>
        <path class="cls-7" d="M188.82,79.83c1.09-1.44,1.93-2.6,2.82-3.73,2.28-2.88,5.36-3.89,8.92-3.72,3.39.16,6.5,1.12,9.22,3.21,1.96,1.5,2.53,3.49,2,5.8-.55,2.37-2.26,3.69-4.52,4.19-1.34.3-2.63-.41-3.89-.83-2.4-.79-4.87-1.35-7.32-.66-2.97.84-4.43,3.26-5.28,6.06-1.42,4.67-1.54,9.49-1.58,14.32-.03,4.1.01,8.2-.03,12.3-.01,1.24-.12,2.49-.33,3.71-.49,2.85-3.11,5.03-6.04,5.11-3.13.09-5.72-1.83-6.41-4.78-.29-1.21-.48-2.44-.47-3.69,0-11.89-.02-23.77.02-35.66,0-2.01.16-4.04,1.09-5.91,1.21-2.43,3.4-3.51,6.34-3.14,2.62.33,4.28,1.86,4.87,4.48.19.85.34,1.7.59,2.93Z"/>
        <path class="cls-7" d="M168.93,98.86c0,6.17,0,12.34,0,18.51,0,1.15-.14,2.27-.44,3.38-.8,2.94-3.17,4.81-6.08,4.83-3.14.02-5.39-1.68-6.26-4.74-.34-1.2-.47-2.44-.47-3.69,0-12.24-.01-24.48.01-36.72,0-2.76.41-5.47,3.02-7.08,2.17-1.34,4.52-1.37,6.79-.17,2.55,1.35,3.37,3.74,3.4,6.38.07,6.43.02,12.86.02,19.29Z"/>
        <path class="cls-7" d="M39.84,102.36H14.19c.03,2.98.63,5.6,1.8,7.88,1.17,2.27,2.72,3.99,4.66,5.14,1.94,1.15,4.07,1.73,6.41,1.73,1.57,0,3-.18,4.3-.55,1.3-.37,2.55-.94,3.77-1.73,1.22-.78,2.34-1.62,3.36-2.52,1.02-.9,2.35-2.11,3.99-3.65.67-.58,1.63-.86,2.88-.86,1.35,0,2.43.37,3.27,1.1.83.74,1.25,1.78,1.25,3.12,0,1.19-.46,2.57-1.39,4.16-.93,1.58-2.33,3.11-4.2,4.56-1.87,1.46-4.23,2.66-7.06,3.63-2.83.96-6.09,1.44-9.77,1.44-8.42,0-14.97-2.4-19.64-7.2S.79,107.28.79,99.05c0-3.87.58-7.47,1.73-10.78,1.15-3.31,2.83-6.16,5.04-8.52s4.93-4.19,8.16-5.45,6.82-1.9,10.76-1.9c5.12,0,9.52,1.08,13.18,3.24s6.41,4.95,8.24,8.38c1.83,3.43,2.74,6.92,2.74,10.47,0,3.3-.95,5.44-2.83,6.41-1.89.98-4.55,1.47-7.97,1.47ZM14.19,94.92h23.77c-.32-4.48-1.53-7.84-3.63-10.06-2.1-2.23-4.86-3.34-8.28-3.34s-5.95,1.13-8.04,3.39c-2.1,2.26-3.37,5.6-3.82,10.01Z"/>
        <g>
          <g>
            <g>
              <path class="cls-8" d="M219.36,99.76c-.27-.17-.55-.33-.82-.51.44.24.77.46.82.51Z"/>
              <path class="cls-7" d="M256.97,67.98c-4.63-.27-9.86.72-15.54,3.89-3.93,2.19-7.56,2.75-11.08,1.7-1.97-.59-3.76-1.61-5.33-2.82,6.78-9.4,14.72-10.48,13.56-21.49,2.04,1.85,11.78,6.37,18.4,18.72Z"/>
              <path class="cls-6" d="M260.82,113.55c-5.64-3.62-11.36-3.73-17.5-.31-6.64,3.71-13.31,4.59-19.82,2.63-1.33-.4-2.59-.91-3.78-1.49,4.82,6.07,12.76,10.87,22.25,11.17,8.41.44,16.94-3.58,22.47-9.15-1.03-.97-2.24-1.97-3.62-2.85Z"/>
            </g>
            <path class="cls-8" d="M268.46,92.66c-.77-2.77-2.1-6.4-3.84-10.54-.08-.05-.16-.1-.24-.16-5.64-3.63-11.36-3.73-17.5-.31-6.64,3.7-13.31,4.58-19.82,2.63-2.64-.79-5.02-2-7.14-3.43-1.72,3.74-2.9,6.56-4.4,12.61h0c-1.2,12.87,16.76,17.96,27.33,8.86,13.57-11.68,19.44-12.1,25.69-9.26-.03-.14-.05-.27-.09-.41ZM218.54,96.78c.44.24.77.46.82.51-.27-.17-.55-.33-.82-.51Z"/>
          </g>
          <path class="cls-7" d="M269.5,102.59c-.06,2.33-.54,4.39-1.17,6.1-1.95-2.81-5.34-4.27-11.36-5.45,6.71-6.07,10.62-2.7,12.53-.65Z"/>
        </g>
      </g>
      <g>
        <path class="cls-8" d="M160.2,29.22c-.23-4.02-.91-7.95-2.38-11.71-2.46-6.27-6.51-11.12-12.69-14.01-3.41-1.6-7.12-2.13-10.82-2.2-7.16-.15-14.33-.12-21.49-.04-3.57.04-5.71,1.97-6.31,5.33-.2,1.1-.24,2.22-.24,3.34,0,7.49,0,14.99,0,22.48,0,7.39,0,14.79,0,22.18,0,1.64.1,3.28.39,4.9.4,2.29,1.74,3.78,3.96,4.42.97.28,1.99.46,3.01.46,7.26-.07,14.53.22,21.78-.17,3.59-.2,7.1-.89,10.35-2.5,6.44-3.18,10.42-8.47,12.61-15.16,1.84-5.62,2.18-11.44,1.83-17.32ZM146.1,42.31c-.98,3.67-2.68,6.91-5.78,9.26-2.46,1.87-5.36,2.43-8.35,2.49-3.98.08-7.96.01-11.94.05-.7,0-.87-.21-.87-.89.01-3.85.02-7.69.02-11.54,0-2.96,0-5.92,0-8.88v-8.49c0-3.94,0-7.89-.02-11.83,0-.72.11-1.04.95-1.03,3.32.06,6.64,0,9.96.06,2.57.04,5.11.42,7.55,1.23,3.81,1.27,6.15,4.12,7.71,7.66,1.19,2.71,1.58,5.6,1.79,8.52.32,4.51.15,8.99-1.03,13.38Z"/>
        <path class="cls-8" d="M190.38,65.43c-4.76-.02-9.45-.56-13.78-2.69-5.66-2.78-9.47-7.18-11.01-13.36-.56-2.26-.56-4.51,1.18-6.39,2.5-2.69,6.4-2.5,8.63.42.87,1.14,1.35,2.47,1.91,3.77.77,1.78,1.61,3.53,2.92,4.99,2.34,2.61,5.38,3.61,8.8,3.72,4.01.13,7.75-.5,10.96-3.2,3.6-3.03,4.06-9.3-.78-12.38-2.26-1.44-4.78-2.11-7.32-2.76-4.91-1.27-9.9-2.3-14.58-4.35-3.18-1.39-5.96-3.3-8.04-6.13-2.29-3.12-2.98-6.67-2.69-10.44.63-8.07,5.51-12.65,12.78-14.96,6.55-2.08,13.25-2.21,19.9-.42,4.63,1.24,8.56,3.66,11.31,7.7,1.4,2.05,2.18,4.31,2.12,6.84-.09,4-3.9,6.73-7.7,5.48-1.12-.37-1.87-1.22-2.46-2.17-.95-1.53-1.82-3.11-2.74-4.66-2.01-3.35-5-4.96-8.88-5.09-2.85-.09-5.67.01-8.25,1.39-2.33,1.24-4.12,2.92-4.2,5.83-.05,1.86.71,3.3,2.09,4.46,2.31,1.94,5.13,2.71,7.96,3.46,5.04,1.33,10.15,2.39,14.99,4.36,2.97,1.21,5.76,2.71,7.97,5.11,3.19,3.46,4.18,7.66,3.96,12.21-.39,8.31-4.8,13.79-12.27,16.99-4.07,1.75-8.39,2.28-12.8,2.27Z"/>
        <path class="cls-8" d="M86.64,57.54c-1.56,1.77-3.02,3.31-4.76,4.57-3.76,2.71-7.98,3.48-12.51,3.15-3.21-.23-6.09-1.29-8.57-3.32-2.92-2.38-4.18-5.63-4.65-9.26-.32-2.48-.37-4.97-.36-7.47.01-6.74,0-13.48.01-20.22,0-1.28.12-2.56.56-3.78.83-2.33,2.73-3.63,5.29-3.64,2.68,0,4.7,1.31,5.55,3.61.39,1.06.49,2.17.49,3.29,0,6.31-.04,12.62.01,18.93.02,2.23.18,4.45.67,6.65,1.26,5.69,5.96,7.13,10.58,5.43,4.5-1.66,6.57-5.12,6.82-9.85.37-6.9.1-13.8.19-20.7.01-1.06.09-2.1.37-3.12.79-2.88,2.99-4.4,6.15-4.24,2.61.13,4.67,2.01,5.14,4.75.14.81.21,1.62.21,2.45-.01,11.31,0,22.62-.01,33.92,0,1.97-.28,3.91-1.85,5.32-3.12,2.82-8,1.27-9.03-2.82-.28-1.12-.2-2.27-.3-3.66Z"/>
        <path class="cls-8" d="M24.96,65.43c-4.57-.03-9.18-.57-13.47-2.63-5.98-2.88-9.86-7.5-11.3-14.03-.67-3.03.45-5.68,2.72-6.92,3.23-1.76,6.59-.43,8.27,3.27.64,1.4,1.22,2.83,1.9,4.21,1.83,3.72,4.79,5.92,8.94,6.4,3.75.43,7.42.24,10.8-1.69,4.19-2.39,5.55-6.1,4.15-10.13-.88-2.54-3.04-3.88-5.42-4.83-3.14-1.26-6.46-1.92-9.73-2.74-4.68-1.18-9.35-2.43-13.43-5.14-4.83-3.19-7.19-7.69-7.15-13.54.05-7,4.08-12.5,10.67-15.22C17.54.13,23.42-.28,29.42.36c3.85.41,7.46,1.5,10.71,3.61,3.44,2.22,6.02,5.14,7.07,9.23.86,3.37-.41,6.67-3.16,7.9-1.92.86-4.97.76-6.58-1.68-.87-1.32-1.57-2.73-2.38-4.08-1.32-2.24-2.83-4.4-5.43-5.17-4.62-1.37-9.21-1.43-13.44,1.33-1.71,1.11-2.89,2.67-3.03,4.82-.16,2.53,1.18,4.22,3.16,5.51,2.58,1.68,5.54,2.33,8.46,3.07,4.86,1.24,9.76,2.34,14.37,4.36,3.93,1.72,7.41,4.04,9.33,8.06,3.53,7.38,2.01,18.58-7.21,24.13-3.61,2.17-7.52,3.34-11.7,3.76-1.51.15-3.01.21-4.65.24Z"/>
      </g>
      <text class="cls-10" transform="translate(.92 148.11)"><tspan class="cls-9" x="0" y="0">BESPOKE,</tspan><tspan class="cls-1" x="105.1" y="0"> </tspan><tspan class="cls-2" x="111.3" y="0">S</tspan><tspan class="cls-5" x="123" y="0">T</tspan><tspan class="cls-4" x="133.74" y="0">AN</tspan><tspan class="cls-3" x="165.51" y="0">D</tspan><tspan class="cls-4" x="180.22" y="0">ARDISED</tspan></text>
    </g>
  </g>
</svg>